<svg width="400" height="200" viewBox="0 0 400 200" fill="none" xmlns="http://www.w3.org/2000/svg">
	<g id="cloud" fill="#5D3B9E">
<rect x="100" width="50" height="50"/>
<rect x="150" width="50" height="50"/>
<rect x="100" y="50" width="50" height="50"/>
<rect x="100" y="100" width="50" height="50"/>
<rect x="100" y="150" width="50" height="50"/>
<rect x="150" y="150" width="50" height="50"/>
<rect x="200" y="150" width="50" height="50"/>
<rect x="50" y="100" width="50" height="50"/>
<rect x="150" y="100" width="50" height="50"/>
<rect x="200" y="100" width="50" height="50"/>
<rect x="250" y="100" width="50" height="50"/>
<rect x="250" y="150" width="50" height="50"/>
<rect x="300" y="100" width="50" height="50"/>
<rect x="300" y="150" width="50" height="50"/>
<rect x="350" y="100" width="50" height="50"/>
<rect x="150" y="50" width="50" height="50"/>
<rect x="50" y="50" width="50" height="50"/>
<rect y="100" width="50" height="50"/>
<rect x="200" y="50" width="50" height="50"/>
<rect x="250" y="50" width="50" height="50"/>
</g>
</svg>
