<svg width="529" height="558" viewBox="0 0 529 558" fill="none" xmlns="http://www.w3.org/2000/svg">
<path d="M295.284 278.947L420.284 278.947L482.784 387.2L420.284 495.453L295.284 495.453L232.784 387.2L295.284 278.947Z" fill="#E94A96"/>
<path d="M108.253 170L233.253 170L295.753 278.253L233.253 386.506L108.253 386.506L45.7532 278.253L108.253 170Z" fill="#5189E3"/>
<path d="M295.253 62.5L420.253 62.5L482.753 170.753L420.253 279.006L295.253 279.006L232.753 170.753L295.253 62.5Z" fill="#191923"/>
<circle cx="248.5" cy="437.5" r="7.5" fill="#5189E3"/>
<circle cx="278.5" cy="437.5" r="7.5" fill="#5189E3"/>
<circle cx="308.5" cy="437.5" r="7.5" fill="#5189E3"/>
<circle cx="218.5" cy="437.5" r="7.5" fill="#5189E3"/>
<circle cx="188.5" cy="437.5" r="7.5" fill="#5189E3"/>
<circle cx="233.5" cy="413.5" r="7.5" fill="#5189E3"/>
<circle cx="263.5" cy="413.5" r="7.5" fill="#5189E3"/>
<circle cx="293.5" cy="413.5" r="7.5" fill="#5189E3"/>
<circle cx="203.5" cy="413.5" r="7.5" fill="#5189E3"/>
<circle cx="203.5" cy="461.5" r="7.5" fill="#5189E3"/>
<circle cx="218.5" cy="485.5" r="7.5" fill="#5189E3"/>
<circle cx="188.5" cy="485.5" r="7.5" fill="#5189E3"/>
<circle cx="233.5" cy="461.5" r="7.5" fill="#5189E3"/>
<circle cx="248.5" cy="485.5" r="7.5" fill="#5189E3"/>
<circle cx="263.5" cy="461.5" r="7.5" fill="#5189E3"/>
<circle cx="293.5" cy="461.5" r="7.5" fill="#5189E3"/>
<circle cx="278.5" cy="485.5" r="7.5" fill="#5189E3"/>
<circle r="7.5" transform="matrix(1 0 0 -1 424.5 238.5)" fill="#FFD800"/>
<circle r="7.5" transform="matrix(1 0 0 -1 439.5 262.5)" fill="#FFD800"/>
<circle r="7.5" transform="matrix(1 0 0 -1 469.5 262.5)" fill="#FFD800"/>
<circle r="7.5" transform="matrix(1 0 0 -1 454.5 238.5)" fill="#FFD800"/>
<circle r="7.5" transform="matrix(1 0 0 -1 484.5 238.5)" fill="#FFD800"/>
<circle r="7.5" transform="matrix(1 0 0 -1 394.5 238.5)" fill="#FFD800"/>
<circle r="7.5" transform="matrix(1 0 0 -1 364.5 238.5)" fill="#FFD800"/>
<circle r="7.5" transform="matrix(1 0 0 -1 409.5 262.5)" fill="#FFD800"/>
<circle r="7.5" transform="matrix(1 0 0 -1 379.5 262.5)" fill="#FFD800"/>
<circle r="7.5" transform="matrix(1 0 0 -1 379.5 214.5)" fill="#FFD800"/>
<circle r="7.5" transform="matrix(1 0 0 -1 394.5 190.5)" fill="#FFD800"/>
<circle r="7.5" transform="matrix(1 0 0 -1 409.5 214.5)" fill="#FFD800"/>
<circle r="7.5" transform="matrix(1 0 0 -1 424.5 190.5)" fill="#FFD800"/>
<circle r="7.5" transform="matrix(1 0 0 -1 439.5 214.5)" fill="#FFD800"/>
<circle r="7.5" transform="matrix(1 0 0 -1 469.5 214.5)" fill="#FFD800"/>
<circle r="7.5" transform="matrix(1 0 0 -1 454.5 190.5)" fill="#FFD800"/>
<circle r="7.5" transform="matrix(1 0 0 -1 484.5 190.5)" fill="#FFD800"/>
<circle r="7.5" transform="matrix(1 0 0 -1 88.5001 158.5)" fill="#E94A96"/>
<circle r="7.5" transform="matrix(1 0 0 -1 118.5 182.5)" fill="#E94A96"/>
<circle r="7.5" transform="matrix(1 0 0 -1 148.5 182.5)" fill="#E94A96"/>
<circle r="7.5" transform="matrix(1 0 0 -1 178.5 182.5)" fill="#E94A96"/>
<circle r="7.5" transform="matrix(1 0 0 -1 118.5 158.5)" fill="#E94A96"/>
<circle r="7.5" transform="matrix(1 0 0 -1 148.5 158.5)" fill="#E94A96"/>
<circle r="7.5" transform="matrix(1 0 0 -1 178.5 158.5)" fill="#E94A96"/>
<circle r="7.5" transform="matrix(1 0 0 -1 58.5001 158.5)" fill="#E94A96"/>
<circle r="7.5" transform="matrix(1 0 0 -1 88.5 182.5)" fill="#E94A96"/>
<circle r="7.5" transform="matrix(1 0 0 -1 58.5 182.5)" fill="#E94A96"/>
<circle r="7.5" transform="matrix(1 0 0 -1 58.5 134.5)" fill="#E94A96"/>
<circle r="7.5" transform="matrix(1 0 0 -1 58.5001 110.5)" fill="#E94A96"/>
<circle r="7.5" transform="matrix(1 0 0 -1 88.5 134.5)" fill="#E94A96"/>
<circle r="7.5" transform="matrix(1 0 0 -1 88.5001 110.5)" fill="#E94A96"/>
<circle r="7.5" transform="matrix(1 0 0 -1 118.5 134.5)" fill="#E94A96"/>
<circle r="7.5" transform="matrix(1 0 0 -1 148.5 134.5)" fill="#E94A96"/>
<circle r="7.5" transform="matrix(1 0 0 -1 178.5 134.5)" fill="#E94A96"/>
<circle r="7.5" transform="matrix(1 0 0 -1 118.5 110.5)" fill="#E94A96"/>
<circle r="7.5" transform="matrix(1 0 0 -1 148.5 110.5)" fill="#E94A96"/>
<circle r="7.5" transform="matrix(1 0 0 -1 178.5 110.5)" fill="#E94A96"/>
</svg>
